<svg width="400" height="400" viewBox="0 0 400 400" fill="none" xmlns="http://www.w3.org/2000/svg">
<g clip-path="url(#clip0_4142_3419)">
<path fill-rule="evenodd" clip-rule="evenodd" d="M268.2 161.875C269.5 155.25 269.95 148.525 269.55 141.725C268.765 130.716 265.987 119.941 261.35 109.925C250.725 86.25 229.775 61.4 197.4 34.8C193.75 31.8 189.95 28.775 186.025 25.725C174.317 16.7365 162.302 8.15633 150 0C150.027 18.6548 147.194 37.2036 141.6 55C131.125 88.65 112.425 116.8 94.65 143.575C71.55 178.325 50 210.75 50 250C50 289.782 65.8035 327.936 93.934 356.066C122.064 384.196 160.218 400 200 400C239.782 400 277.936 384.196 306.066 356.066C334.196 327.936 350 289.782 350 250C350 235.175 347.675 220.625 343.5 206.475C341.873 200.94 339.988 195.484 337.85 190.125C332.812 177.646 326.688 165.633 319.55 154.225C316.933 149.983 314.199 145.815 311.35 141.725C311.35 148.25 310.425 154.675 308.725 160.95C307.475 165.5 305.825 169.95 303.85 174.325C301.6 179.2 298.95 183.95 295.925 188.5C293.345 192.403 290.549 196.159 287.55 199.75C282.328 206.018 276.591 211.838 270.4 217.15C261.219 225.071 251.192 231.955 240.5 237.675C240.417 237.717 240.333 237.759 240.25 237.8C238.788 238.575 237.313 239.325 235.825 240.05C225.025 245.3 220.075 234.15 228.7 225.8L228.85 225.65C234.736 220.024 240.248 214.02 245.35 207.675C247.978 204.409 250.464 201.031 252.8 197.55L253.075 197.1C257.025 191.15 260.275 185.175 262.825 179.15C265.207 173.601 267.008 167.82 268.2 161.9V161.875ZM202.75 198.7C210.875 190.825 217.05 183.5 221.575 176.7C230.1 163.95 232.675 153.45 232.075 144.025C231.566 137.525 229.881 131.172 227.1 125.275C220.1 109.7 205.05 90.225 177.175 66.775C165.075 105.325 143.975 137.05 126.85 162.825L125.85 164.325C101.4 201.15 87.5 224.075 87.5 250C87.5 279.837 99.3526 308.452 120.45 329.549C141.548 350.647 170.163 362.5 200 362.5C229.837 362.5 258.452 350.647 279.549 329.549C300.647 308.452 312.5 279.837 312.5 250C312.5 243.45 311.875 236.875 310.675 230.25C293.997 248.209 274.17 262.961 252.175 273.775L235.825 240.025L252.2 273.775C242.354 278.719 231.102 280.105 220.35 277.7C214.027 276.227 208.117 273.35 203.058 269.282C197.999 265.214 193.92 260.059 191.125 254.2C180.5 231.95 190.775 210.3 202.625 198.85L202.775 198.7H202.75Z" fill="#C862AC"/>
</g>
<defs>
<clipPath id="clip0_4142_3419">
<rect width="400" height="400" fill="white"/>
</clipPath>
</defs>
</svg>
